<svg xmlns="http://www.w3.org/2000/svg" version="1.1" xmlns:xlink="http://www.w3.org/1999/xlink" xmlns:svgjs="http://svgjs.dev/svgjs" width="1500" height="1500" viewBox="0 0 1500 1500"><rect width="1500" height="1500" fill="#000000"></rect><g transform="matrix(0.6666666666666666,0,0,0.6666666666666666,249.39393939393932,552.7884233802413)"><svg viewBox="0 0 396 156" data-background-color="#ffffff" preserveAspectRatio="xMidYMid meet" height="590" width="1500" xmlns="http://www.w3.org/2000/svg" xmlns:xlink="http://www.w3.org/1999/xlink"><g id="tight-bounds" transform="matrix(1,0,0,1,0.24000000000003752,0.2161168288534867)"><svg viewBox="0 0 395.5199999999999 155.56776634229303" height="155.56776634229303" width="395.5199999999999"><g><svg viewBox="0 0 395.52000000000004 155.56776634229306" height="155.56776634229303" width="395.5199999999999"><g transform="matrix(1,0,0,1,0,116.6765636895702)"><svg viewBox="0 0 395.52000000000004 38.89120265272286" height="38.89120265272286" width="395.52000000000004"><g id="textblocktransform"><svg viewBox="0 0 395.52000000000004 38.89120265272286" height="38.89120265272286" width="395.52000000000004" id="textblock"><g><svg viewBox="0 0 395.52000000000004 38.89120265272286" height="38.89120265272286" width="395.52000000000004"><g transform="matrix(1,0,0,1,0,0)"><svg width="395.52000000000004" viewBox="1.8 -37.75 392.02 38.55" height="38.89120265272286" data-palette-color="#333333"><path d="M2.65-35L31.6-35 31.35-24.45 29.45-24.45Q29.55-27.4 29.1-29.35 28.65-31.3 27.33-32.27 26-33.25 23.4-33.2L23.4-33.2 19.15-33.15 17.5-5.95Q17.45-4.6 17.35-3.63 17.25-2.65 17.15-2L17.15-2Q17.85-2.05 18.55-2.08 19.25-2.1 19.93-2.15 20.6-2.2 21.3-2.2L21.3-2.2 21.2 0 9.65 0 9.75-1.65Q11.4-1.75 12.13-2.55 12.85-3.35 13.1-4.73 13.35-6.1 13.45-7.8L13.45-7.8 15-33.15 9.85-33.1Q6.7-33.1 5.3-31 3.9-28.9 3.65-24.45L3.65-24.45 1.8-24.45 2.65-35ZM53.4 0.55L53.4 0.55Q51.05 0.55 50.2-0.7 49.35-1.95 49.35-4.25L49.35-4.25Q49.35-5.65 49.57-7.58 49.8-9.5 50.07-11.65 50.35-13.8 50.57-16 50.8-18.2 50.8-20.15L50.8-20.15Q50.8-20.75 50.6-21.45 50.4-22.15 49.9-22.68 49.4-23.2 48.4-23.2L48.4-23.2Q47.05-23.2 45.7-21.98 44.35-20.75 43.12-18.65 41.9-16.55 40.92-13.88 39.95-11.2 39.4-8.33 38.85-5.45 38.85-2.65L38.85-2.65Q38.85-1.9 38.87-1.28 38.9-0.65 38.95 0L38.95 0 34.85 0Q34.8-0.35 34.8-0.63 34.8-0.9 34.8-1.3L34.8-1.3Q34.8-2.65 34.95-5.45 35.1-8.25 35.35-11.83 35.6-15.4 35.92-19.15 36.25-22.9 36.6-26.28 36.95-29.65 37.3-31.95L37.3-31.95Q37.5-33.25 37.57-33.6 37.65-33.95 37.75-34.6L37.75-34.6 34.25-34.4 34.45-36.4Q36.65-36.4 37.87-36.6 39.1-36.8 39.75-37.1 40.4-37.4 40.8-37.75L40.8-37.75 42.25-37.75Q42.05-36.5 41.8-34.95 41.55-33.4 41.3-31.9 41.05-30.4 40.9-29.25L40.9-29.25Q40.75-28 40.52-26.03 40.3-24.05 40.07-21.88 39.85-19.7 39.67-17.7 39.5-15.7 39.4-14.4L39.4-14.4 39.55-14.4Q41.25-18.95 42.9-21.35 44.55-23.75 46.17-24.65 47.8-25.55 49.4-25.55L49.4-25.55Q52.4-25.55 53.65-23.63 54.9-21.7 54.9-19.05L54.9-19.05Q54.9-16.3 54.55-13.43 54.2-10.55 53.85-8.13 53.5-5.7 53.5-4.25L53.5-4.25Q53.5-3.35 53.72-2.65 53.95-1.95 54.85-1.95L54.85-1.95Q55.7-1.95 56.72-3.03 57.75-4.1 58.5-6.8L58.5-6.8 59.75-6.45Q59.6-5.6 59.15-4.4 58.7-3.2 57.92-2.08 57.15-0.95 56.02-0.2 54.9 0.55 53.4 0.55ZM74.5-25.55L74.5-25.55Q76.3-25.55 77.9-25 79.5-24.45 80.5-23.2 81.5-21.95 81.5-19.8L81.5-19.8Q81.5-17.75 80.09-16.25 78.7-14.75 76.45-13.78 74.2-12.8 71.65-12.2 69.09-11.6 66.75-11.35L66.75-11.35Q66.75-8.25 67.37-6.15 68-4.05 69.25-3 70.5-1.95 72.45-1.95L72.45-1.95Q73.9-1.95 75.37-2.6 76.84-3.25 78.2-4.58 79.55-5.9 80.65-8L80.65-8 82.3-7.05Q80.9-4.45 79.3-2.75 77.7-1.05 75.8-0.25 73.9 0.55 71.59 0.55L71.59 0.55Q66.84 0.55 64.59-2.43 62.35-5.4 62.35-10.25L62.35-10.25Q62.35-13.15 63.1-15.9 63.85-18.65 65.34-20.83 66.84-23 69.15-24.28 71.45-25.55 74.5-25.55ZM73.8-23.85L73.8-23.85Q71.5-23.85 70.02-22.3 68.55-20.75 67.77-18.3 67-15.85 66.8-13.15L66.8-13.15Q69.45-13.5 71.84-14.4 74.25-15.3 75.8-16.73 77.34-18.15 77.34-20.05L77.34-20.05Q77.34-21.65 76.47-22.75 75.59-23.85 73.8-23.85ZM115.69 0.8L115.69 0.8Q110.69 0.8 107.02-1.3 103.34-3.4 101.47-7.35 99.59-11.3 99.89-16.75L99.89-16.75Q100.09-20.3 101.32-23.68 102.54-27.05 104.79-29.8 107.04-32.55 110.37-34.18 113.69-35.8 118.04-35.8L118.04-35.8Q119.84-35.8 121.67-35.48 123.49-35.15 125.19-34.55 126.89-33.95 128.24-33.1L128.24-33.1 128.14-35.45 130.89-35.45 130.29-24 128.49-24Q128.44-27.15 127.09-29.33 125.74-31.5 123.44-32.65 121.14-33.8 118.24-33.8L118.24-33.8Q115.59-33.8 113.19-32.63 110.79-31.45 108.94-29.33 107.09-27.2 105.94-24.3 104.79-21.4 104.59-17.9L104.59-17.9Q104.34-13.2 105.84-9.5 107.34-5.8 110.27-3.7 113.19-1.6 117.14-1.6L117.14-1.6Q118.49-1.6 119.99-1.85 121.49-2.1 122.99-2.68 124.49-3.25 125.84-4.1L125.84-4.1 126.14-9.95Q126.24-11.25 126.29-12.5 126.34-13.75 126.39-15L126.39-15Q125.54-14.95 124.64-14.9 123.74-14.85 122.89-14.8L122.89-14.8 122.99-17 134.14-17 134.04-15.35Q132.64-15.35 131.87-14.63 131.09-13.9 130.74-12.88 130.39-11.85 130.29-10.88 130.19-9.9 130.14-9.4L130.14-9.4 129.74-1.8 128.54-1.8Q127.74-1.8 126.34-1.5 124.94-1.2 123.09-0.5L123.09-0.5Q121.54 0.1 119.44 0.45 117.34 0.8 115.69 0.8ZM149.34-25.55L149.34-25.55Q152.04-25.55 154.19-24.28 156.34-23 157.59-20.55 158.84-18.1 158.84-14.6L158.84-14.6Q158.84-10.6 157.39-7.13 155.94-3.65 153.21-1.55 150.49 0.55 146.59 0.55L146.59 0.55Q143.29 0.55 141.16-0.95 139.04-2.45 138.01-5 136.99-7.55 136.99-10.65L136.99-10.65Q136.99-14.7 138.46-18.1 139.94-21.5 142.71-23.53 145.49-25.55 149.34-25.55ZM148.59-23.7L148.59-23.7Q146.39-23.75 144.79-22.23 143.19-20.7 142.31-18.1 141.44-15.5 141.39-12.3L141.39-12.3Q141.34-10.6 141.59-8.7 141.84-6.8 142.46-5.15 143.09-3.5 144.21-2.45 145.34-1.4 147.04-1.35L147.04-1.35Q149.04-1.3 150.44-2.43 151.84-3.55 152.69-5.35 153.54-7.15 153.96-9.2 154.39-11.25 154.44-13.05L154.44-13.05Q154.49-14.8 154.26-16.65 154.04-18.5 153.39-20.1 152.74-21.7 151.59-22.68 150.44-23.65 148.59-23.7ZM175.39-25.55L175.39-25.55Q178.09-25.55 180.24-24.28 182.39-23 183.64-20.55 184.89-18.1 184.89-14.6L184.89-14.6Q184.89-10.6 183.44-7.13 181.99-3.65 179.26-1.55 176.54 0.55 172.64 0.55L172.64 0.55Q169.34 0.55 167.21-0.95 165.09-2.45 164.06-5 163.04-7.55 163.04-10.65L163.04-10.65Q163.04-14.7 164.51-18.1 165.99-21.5 168.76-23.53 171.54-25.55 175.39-25.55ZM174.64-23.7L174.64-23.7Q172.44-23.75 170.84-22.23 169.24-20.7 168.36-18.1 167.49-15.5 167.44-12.3L167.44-12.3Q167.39-10.6 167.64-8.7 167.89-6.8 168.51-5.15 169.14-3.5 170.26-2.45 171.39-1.4 173.09-1.35L173.09-1.35Q175.09-1.3 176.49-2.43 177.89-3.55 178.74-5.35 179.59-7.15 180.01-9.2 180.44-11.25 180.49-13.05L180.49-13.05Q180.54-14.8 180.31-16.65 180.09-18.5 179.44-20.1 178.79-21.7 177.64-22.68 176.49-23.65 174.64-23.7ZM195.78 0.55L195.78 0.55Q193.48 0.55 191.98-0.73 190.48-2 189.76-4.17 189.03-6.35 189.03-8.95L189.03-8.95Q189.03-13.85 190.66-17.57 192.28-21.3 195.53-23.43 198.78-25.55 203.58-25.55L203.58-25.55Q204.33-25.55 205.03-25.5 205.73-25.45 206.38-25.35L206.38-25.35Q206.58-27.15 206.81-28.98 207.03-30.8 207.26-32.33 207.48-33.85 207.68-34.6L207.68-34.6Q206.78-34.55 205.86-34.5 204.93-34.45 204.03-34.4L204.03-34.4 204.23-36.4Q206.43-36.4 207.66-36.6 208.88-36.8 209.53-37.1 210.18-37.4 210.58-37.75L210.58-37.75 212.03-37.75Q211.58-35.05 211.11-31.18 210.63-27.3 209.93-21.35L209.93-21.35Q209.58-18.15 209.26-14.98 208.93-11.8 208.71-9.1 208.48-6.4 208.48-4.6L208.48-4.6Q208.48-3.65 208.68-2.8 208.88-1.95 209.83-1.95L209.83-1.95Q210.68-1.95 211.68-3.05 212.68-4.15 213.43-6.8L213.43-6.8 214.88-6.5Q214.73-5.6 214.26-4.42 213.78-3.25 212.98-2.1 212.18-0.95 211.03-0.2 209.88 0.55 208.38 0.55L208.38 0.55Q206.38 0.55 205.46-0.7 204.53-1.95 204.53-3.95L204.53-3.95Q204.53-5.4 204.73-6.98 204.93-8.55 205.28-10.4L205.28-10.4 205.13-10.4Q203.78-5.85 202.16-3.48 200.53-1.1 198.91-0.28 197.28 0.55 195.78 0.55ZM196.83-1.8L196.83-1.8Q198.43-1.8 200.01-3.6 201.58-5.4 202.88-8.3 204.18-11.2 204.88-14.45L204.88-14.45Q205.28-16.2 205.56-18.35 205.83-20.5 206.13-23.25L206.13-23.25Q205.33-23.55 204.46-23.65 203.58-23.75 202.73-23.75L202.73-23.75Q200.63-23.75 199.06-22.9 197.48-22.05 196.38-20.6 195.28-19.15 194.61-17.35 193.93-15.55 193.63-13.6 193.33-11.65 193.33-9.8L193.33-9.8Q193.33-6.4 194.11-4.1 194.88-1.8 196.83-1.8ZM231.93-35L254.93-35 254.73-26.25 253.08-26.25Q253.23-29.2 252.35-30.73 251.48-32.25 249.95-32.77 248.43-33.3 246.53-33.25L246.53-33.25 242.88-33.15Q241.18-33.1 240.4-32.45 239.63-31.8 239.43-30.58 239.23-29.35 239.13-27.6L239.13-27.6 238.63-18.4 242.53-18.4Q244.33-18.45 245.43-18.75 246.53-19.05 247.1-20.05 247.68-21.05 247.78-23.1L247.78-23.1 249.43-23.1 248.88-12.15 247.23-12.15Q247.33-14.2 246.85-15.13 246.38-16.05 245.3-16.3 244.23-16.55 242.43-16.55L242.43-16.55Q241.48-16.55 240.5-16.53 239.53-16.5 238.53-16.4L238.53-16.4 237.98-5.95Q237.93-4.6 237.83-3.63 237.73-2.65 237.63-2L237.63-2Q238.48-2.05 239.33-2.08 240.18-2.1 241.03-2.15 241.88-2.2 242.73-2.2L242.73-2.2 242.63 0 230.08 0 230.18-1.65Q232.08-1.75 232.83-2.53 233.58-3.3 233.73-4.67 233.88-6.05 233.93-7.8L233.93-7.8 235.13-29.4Q235.18-30.4 235.28-31.33 235.38-32.25 235.48-33L235.48-33Q234.58-32.95 233.65-32.9 232.73-32.85 231.83-32.8L231.83-32.8 231.93-35ZM269.63-25.55L269.63-25.55Q271.13-25.55 272.93-25.33 274.73-25.1 276.33-24.7L276.33-24.7Q275.93-21.7 275.55-18.73 275.18-15.75 274.85-13.08 274.53-10.4 274.33-8.28 274.13-6.15 274.13-4.95L274.13-4.95Q274.13-3.95 274.28-2.95 274.43-1.95 275.53-1.95L275.53-1.95Q276.38-1.95 277.4-3.05 278.43-4.15 279.18-6.8L279.18-6.8 280.58-6.5Q280.43-5.6 279.95-4.42 279.48-3.25 278.68-2.1 277.88-0.95 276.73-0.2 275.58 0.55 274.08 0.55L274.08 0.55Q272.08 0.55 271.23-0.7 270.38-1.95 270.38-3.95L270.38-3.95Q270.38-5.4 270.65-7.1 270.93-8.8 271.28-10.65L271.28-10.65 271.13-10.65Q269.93-6.95 268.65-4.73 267.38-2.5 266.1-1.35 264.83-0.2 263.63 0.18 262.43 0.55 261.38 0.55L261.38 0.55Q258.68 0.55 256.85-1.45 255.03-3.45 255.03-8.15L255.03-8.15Q255.03-11.65 255.93-14.8 256.83-17.95 258.65-20.38 260.48-22.8 263.23-24.18 265.98-25.55 269.63-25.55ZM268.08-23.75L268.08-23.75Q265.83-23.75 264.15-22.5 262.48-21.25 261.38-19.13 260.28-17 259.75-14.38 259.23-11.75 259.23-9L259.23-9Q259.23-5.8 259.93-3.73 260.63-1.65 262.48-1.65L262.48-1.65Q263.83-1.65 265.2-3 266.58-4.35 267.78-6.63 268.98-8.9 269.93-11.73 270.88-14.55 271.43-17.5 271.98-20.45 271.98-23.15L271.98-23.15Q271.23-23.45 270.23-23.6 269.23-23.75 268.08-23.75ZM289.77 0L285.62 0Q285.57-0.35 285.57-0.63 285.57-0.9 285.57-1.3L285.57-1.3Q285.57-2.15 285.62-3.33 285.67-4.5 285.85-6.45 286.02-8.4 286.37-11.55L286.37-11.55Q286.72-14.8 286.92-16.45 287.12-18.1 287.22-18.88 287.32-19.65 287.32-20.15L287.32-20.15Q287.37-21.15 287.2-22.1 287.02-23.05 285.97-23.05L285.97-23.05Q285.17-23.05 284.12-21.95 283.07-20.85 282.32-18.2L282.32-18.2 280.92-18.5Q281.07-19.4 281.55-20.58 282.02-21.75 282.82-22.9 283.62-24.05 284.77-24.8 285.92-25.55 287.42-25.55L287.42-25.55Q289.67-25.55 290.42-24 291.17-22.45 291.07-19.85L291.07-19.85Q291.02-18.75 290.8-17.43 290.57-16.1 290.32-14.65L290.32-14.65 290.47-14.65Q291.92-19 293.5-21.35 295.07-23.7 296.7-24.63 298.32-25.55 299.92-25.55L299.92-25.55Q301.42-25.55 302.42-24.78 303.42-24 303.42-22.65L303.42-22.65Q303.42-21.75 302.8-21 302.17-20.25 301.12-20.25L301.12-20.25Q300.22-20.25 299.57-20.8 298.92-21.35 298.82-22.35L298.82-22.35Q297.42-22.65 296.1-21.45 294.77-20.25 293.6-18.03 292.42-15.8 291.55-13.05 290.67-10.3 290.17-7.45 289.67-4.6 289.67-2.15L289.67-2.15Q289.67-1.4 289.7-1.03 289.72-0.65 289.77 0L289.77 0ZM339.97 0.55L339.97 0.55Q337.62 0.55 336.8-0.7 335.97-1.95 335.97-4.25L335.97-4.25Q335.97-5.65 336.25-7.55 336.52-9.45 336.87-11.6 337.22-13.75 337.5-15.95 337.77-18.15 337.77-20.15L337.77-20.15Q337.77-20.75 337.57-21.45 337.37-22.15 336.87-22.68 336.37-23.2 335.37-23.2L335.37-23.2Q333.97-23.2 332.62-21.9 331.27-20.6 330.12-18.4 328.97-16.2 328.1-13.53 327.22-10.85 326.72-8.03 326.22-5.2 326.22-2.65L326.22-2.65Q326.22-1.9 326.25-1.28 326.27-0.65 326.32 0L326.32 0 322.12 0Q322.07-0.35 322.07-0.63 322.07-0.9 322.07-1.3L322.07-1.3Q322.07-3.2 322.35-5.8 322.62-8.4 323-11.15 323.37-13.9 323.65-16.35 323.92-18.8 323.87-20.35L323.87-20.35Q323.82-21.2 323.37-22.2 322.92-23.2 321.47-23.2L321.47-23.2Q320.07-23.2 318.75-21.9 317.42-20.6 316.27-18.4 315.12-16.2 314.22-13.53 313.32-10.85 312.82-8.03 312.32-5.2 312.32-2.65L312.32-2.65Q312.32-1.9 312.35-1.28 312.37-0.65 312.42 0L312.42 0 308.22 0Q308.17-0.35 308.17-0.63 308.17-0.9 308.17-1.3L308.17-1.3Q308.17-2.15 308.25-3.28 308.32-4.4 308.55-6.28 308.77-8.15 309.12-11.3L309.12-11.3Q309.47-14.25 309.67-15.9 309.87-17.55 309.97-18.43 310.07-19.3 310.1-19.78 310.12-20.25 310.12-20.8L310.12-20.8Q310.12-21.7 309.87-22.38 309.62-23.05 308.77-23.05L308.77-23.05Q307.97-23.05 306.92-21.95 305.87-20.85 305.12-18.2L305.12-18.2 303.72-18.5Q303.87-19.4 304.35-20.58 304.82-21.75 305.62-22.9 306.42-24.05 307.57-24.8 308.72-25.55 310.22-25.55L310.22-25.55Q311.87-25.55 312.67-24.73 313.47-23.9 313.75-22.58 314.02-21.25 313.92-19.7L313.92-19.7Q313.87-18.3 313.62-16.88 313.37-15.45 313.17-14.4L313.17-14.4 313.32-14.4Q314.92-18.95 316.5-21.35 318.07-23.75 319.6-24.65 321.12-25.55 322.47-25.55L322.47-25.55Q324.47-25.55 325.65-24.63 326.82-23.7 327.32-22.4 327.82-21.1 327.82-19.85L327.82-19.85Q327.82-18.45 327.62-17.45 327.42-16.45 326.97-14.55L326.97-14.55 327.12-14.55Q328.77-19.1 330.4-21.48 332.02-23.85 333.57-24.7 335.12-25.55 336.47-25.55L336.47-25.55Q338.47-25.55 339.62-24.65 340.77-23.75 341.25-22.28 341.72-20.8 341.72-19.05L341.72-19.05Q341.72-16.3 341.32-13.43 340.92-10.55 340.5-8.13 340.07-5.7 340.07-4.25L340.07-4.25Q340.07-3.35 340.3-2.65 340.52-1.95 341.42-1.95L341.42-1.95Q342.27-1.95 343.32-3.03 344.37-4.1 345.12-6.8L345.12-6.8 346.52-6.45Q346.37-5.6 345.87-4.4 345.37-3.2 344.57-2.08 343.77-0.95 342.62-0.2 341.47 0.55 339.97 0.55ZM361.22-25.55L361.22-25.55Q363.02-25.55 364.62-25 366.22-24.45 367.22-23.2 368.22-21.95 368.22-19.8L368.22-19.8Q368.22-17.75 366.82-16.25 365.42-14.75 363.17-13.78 360.92-12.8 358.37-12.2 355.82-11.6 353.47-11.35L353.47-11.35Q353.47-8.25 354.09-6.15 354.72-4.05 355.97-3 357.22-1.95 359.17-1.95L359.17-1.95Q360.62-1.95 362.09-2.6 363.57-3.25 364.92-4.58 366.27-5.9 367.37-8L367.37-8 369.02-7.05Q367.62-4.45 366.02-2.75 364.42-1.05 362.52-0.25 360.62 0.55 358.32 0.55L358.32 0.55Q353.57 0.55 351.32-2.43 349.07-5.4 349.07-10.25L349.07-10.25Q349.07-13.15 349.82-15.9 350.57-18.65 352.07-20.83 353.57-23 355.87-24.28 358.17-25.55 361.22-25.55ZM360.52-23.85L360.52-23.85Q358.22-23.85 356.74-22.3 355.27-20.75 354.49-18.3 353.72-15.85 353.52-13.15L353.52-13.15Q356.17-13.5 358.57-14.4 360.97-15.3 362.52-16.73 364.07-18.15 364.07-20.05L364.07-20.05Q364.07-21.65 363.19-22.75 362.32-23.85 360.52-23.85ZM380.17 0L376.02 0Q375.97-0.35 375.97-0.63 375.97-0.9 375.97-1.3L375.97-1.3Q375.97-2.15 376.02-3.33 376.07-4.5 376.24-6.45 376.42-8.4 376.77-11.55L376.77-11.55Q377.12-14.8 377.32-16.45 377.52-18.1 377.62-18.88 377.72-19.65 377.72-20.15L377.72-20.15Q377.77-21.15 377.59-22.1 377.42-23.05 376.37-23.05L376.37-23.05Q375.57-23.05 374.52-21.95 373.47-20.85 372.72-18.2L372.72-18.2 371.32-18.5Q371.47-19.4 371.94-20.58 372.42-21.75 373.22-22.9 374.02-24.05 375.17-24.8 376.32-25.55 377.82-25.55L377.82-25.55Q380.07-25.55 380.82-24 381.57-22.45 381.47-19.85L381.47-19.85Q381.42-18.75 381.19-17.43 380.97-16.1 380.72-14.65L380.72-14.65 380.87-14.65Q382.32-19 383.89-21.35 385.47-23.7 387.09-24.63 388.72-25.55 390.32-25.55L390.32-25.55Q391.82-25.55 392.82-24.78 393.82-24 393.82-22.65L393.82-22.65Q393.82-21.75 393.19-21 392.57-20.25 391.52-20.25L391.52-20.25Q390.62-20.25 389.97-20.8 389.32-21.35 389.22-22.35L389.22-22.35Q387.82-22.65 386.49-21.45 385.17-20.25 383.99-18.03 382.82-15.8 381.94-13.05 381.07-10.3 380.57-7.45 380.07-4.6 380.07-2.15L380.07-2.15Q380.07-1.4 380.09-1.03 380.12-0.65 380.17 0L380.17 0Z" opacity="1" transform="matrix(1,0,0,1,0,0)" fill="#ffffff" class="wordmark-text-0" data-fill-palette-color="primary" id="text-0"></path></svg></g></svg></g></svg></g></svg></g><g transform="matrix(1,0,0,1,146.44998957903655,0)"><svg viewBox="0 0 102.62002084192694 107.495284132126" height="107.495284132126" width="102.62002084192694"><g><svg xmlns="http://www.w3.org/2000/svg" xmlns:xlink="http://www.w3.org/1999/xlink" version="1.1" x="0" y="0" viewBox="5.629146245423794 1.984 90.33384236110719 94.62541492085278" enable-background="new 0 0 100 100" xml:space="preserve" height="107.495284132126" width="102.62002084192694" class="icon-icon-0" data-fill-palette-color="accent" id="icon-0"><path fill="#ffffff" d="M77.582 70.932S82.6 73.002 84.088 70.241C85.424 67.766 86.248 66.735 86.627 66.526 86.732 66.471 87.09 65.955 89.92 67.319 91.596 68.188 93.016 69.141 92.561 70.217 92.141 71.205 89.725 76.641 84.094 75.475 83.899 75.444 83.699 75.547 83.574 75.848 83.285 76.536 83.121 76.629 82.828 76.547 82.523 76.463 82.303 76.326 82.213 76.24 81.916 75.97 82.529 75.033 81.91 74.761 81.67 74.65 53.049 62.353 52.605 62.152 52.23 61.957 52.463 61.705 52.717 61.756 53.461 61.877 77.582 70.932 77.582 70.932M87.297 67.117C87.246 67.291 88.211 67.922 89.455 68.535 90.699 69.139 91.75 69.492 91.801 69.32 91.856 69.148 90.889 68.515 89.643 67.908 88.4 67.301 87.35 66.947 87.297 67.117M54.188 34.711C53.842 34.72 53.5 34.727 53.151 34.733A11 11 0 0 1 52.588 36.55 9 9 0 0 0 54.188 34.711M49.429 34.747C48.481 34.737 47.534 34.718 46.592 34.689A13 13 0 0 1 45.417 37.576L45.378 37.65C47.049 36.936 48.432 35.908 49.429 34.747M45.365 34.647C44.958 34.631 44.554 34.614 44.15 34.595 42.77 35.545 40.911 36.369 39.129 36.665 41.156 37.066 43.642 36.637 44.934 35.652 44.961 35.632 44.991 35.614 45.015 35.599 45.146 35.29 45.262 34.976 45.365 34.647M50.723 3.548C37.946 3.554 35.536 6.856 33.591 12.917L30.703 22.761C36.567 22.2 43.325 21.881 50.523 21.881 57.9 21.881 64.818 22.216 70.783 22.804L67.892 12.954C65.943 6.87 63.525 3.554 50.723 3.548M50.872 29.327H50.723C38.108 29.298 28.577 27.695 21.585 25.919 14.681 24.164 10.298 22.244 7.919 21.564 7.41 21.406 7.184 21.564 7.134 21.622A0.36 0.36 0 0 0 7.055 21.832C7.048 22.265 7.213 22.724 7.333 22.965 10.05 28.395 29.233 33.302 50.725 33.329H50.891C72.373 33.298 91.545 28.393 94.264 22.965 94.383 22.724 94.549 22.266 94.541 21.832A0.36 0.36 0 0 0 94.461 21.622C94.41 21.564 94.184 21.406 93.678 21.564 91.295 22.244 86.914 24.164 80.01 25.919 73.02 27.695 63.484 29.298 50.872 29.327M38.259 72.512C37.617 72.608 36.626 72.791 35.458 73.139 33.365 73.754 30.74 74.877 28.537 76.889 24.809 80.285 21.041 81.453 19.663 81.789 19.866 83.988 20.651 92.453 20.925 95.367 25.818 94.924 33.05 94.137 35.391 89.105 36.151 87.47 38.934 84.597 41.727 84.994A55 55 0 0 0 40.688 83.707C35.429 77.373 37.115 73.854 38.259 72.512M59.748 84.988C62.529 84.617 65.301 87.474 66.059 89.105 68.401 94.136 75.631 94.922 80.526 95.367 80.797 92.453 81.586 83.988 81.789 81.789 78.554 81.002 75.351 79.103 72.916 76.889 70.481 74.668 66.582 72.934 63.176 72.493 64.322 73.822 66.043 77.347 60.763 83.708 60.414 84.123 60.078 84.553 59.748 84.988M40.092 72.879A59 59 0 0 1 40.842 77.967C40.926 78.758 39.74 78.885 39.658 78.096A58 58 0 0 0 38.991 73.465C36.084 77.072 42.166 83.547 44.327 86.455 46.112 88.865 47.305 90.795 50.724 90.795S55.334 88.865 57.121 86.455C59.281 83.547 65.362 77.072 62.457 73.465A58 58 0 0 0 61.789 78.096C61.707 78.885 60.52 78.758 60.602 77.967 60.821 75.891 61.123 73.965 61.481 72.25 59.936 72.799 58.373 73.697 57.084 75.473 54.541 78.983 54.021 78.639 50.845 78.727 47.672 78.639 45.336 78.983 42.791 75.473 41.905 74.248 40.989 73.443 40.092 72.879M64.262 71.488A22 22 0 0 1 66.328 71.994C72.613 73.851 74.402 77.668 79.797 79.877 81.432 80.547 82.524 80.729 82.524 80.729 82.809 80.774 83.049 81.084 83.022 81.375 83.022 81.375 81.881 93.687 81.655 96.071A0.61 0.61 0 0 1 81.008 96.608C75.476 96.092 67.662 95.379 64.98 89.608 63.926 87.344 60.496 84.764 58.097 87.219 57.443 88.098 56.767 88.955 56.027 89.746 54.65 91.215 53.197 91.99 50.726 91.99 46.951 91.99 45.503 90.045 43.569 87.433 41.163 84.642 37.554 87.283 36.473 89.607 33.789 95.378 25.974 96.09 20.443 96.607A0.614 0.614 0 0 1 19.795 96.07C19.569 93.687 18.426 81.373 18.426 81.373 18.4 81.084 18.64 80.773 18.926 80.728 18.926 80.728 20.02 80.545 21.654 79.875 27.048 77.666 28.835 73.849 35.122 71.992A24 24 0 0 1 36.884 71.547C35.375 71.093 34.169 70.715 33.625 69.107 33.347 68.14 32.424 60.879 31.729 56.041 30.44 56.115 29.335 55.437 28.255 54.084 27.565 53.217 26.861 52.057 26.09 50.582A11.4 11.4 0 0 1 24.95 47.282C24.573 45.111 24.968 42.753 26.907 42.114 27.821 41.819 28.765 41.959 29.638 42.385 28.41 38.971 27.512 35.716 27.157 32.722 16.24 30.742 7.994 27.471 6.058 23.603 5.878 23.245 5.604 22.527 5.631 21.756 5.658 21.36 5.8 20.985 6.058 20.688 6.582 20.084 7.448 19.928 8.325 20.199 11.346 21.063 17.577 23.925 28.149 25.906L32.089 12.478C34.282 5.616 37.384 1.99 50.721 1.984 64.084 1.99 67.186 5.616 69.383 12.478L73.328 25.928C83.971 23.944 90.236 21.066 93.266 20.199 94.145 19.928 95.01 20.084 95.537 20.688 95.797 20.986 95.934 21.36 95.961 21.756 95.989 22.527 95.715 23.245 95.537 23.603 93.604 27.458 85.401 30.723 74.535 32.705 74.181 35.705 73.28 38.97 72.049 42.394 72.926 41.961 73.877 41.817 74.797 42.114 76.735 42.753 77.133 45.112 76.754 47.282A11.3 11.3 0 0 1 75.614 50.582C74.843 52.057 74.139 53.217 73.449 54.084 72.367 55.441 71.258 56.121 69.965 56.041 69.478 59.43 68.879 64.004 68.469 66.775L65.674 65.732 64.791 65.404C65.088 64.988 65.371 64.537 65.644 64.058 66.529 62.494 67.269 60.579 67.783 58.246 68 57.262 68.178 56.213 68.31 55.086 68.373 54.529 68.976 54.432 69.297 54.697L69.373 54.717C70.459 55.067 71.36 54.789 72.517 53.338 73.138 52.563 73.799 51.475 74.56 50.03 75.072 49.056 75.414 48.036 75.581 47.082 75.949 44.945 75.402 43.565 74.434 43.247 73.798 43.04 73.069 43.155 72.302 43.612 71.778 43.926 71.251 44.392 70.766 44.997 70.268 45.616 69.337 44.868 69.837 44.25 69.902 44.165 69.973 44.083 70.042 44.001 70.542 39.382 70.688 35.924 70.563 33.354 65.868 34.038 60.792 34.492 55.595 34.67 54.684 36.398 53.132 37.906 51.172 38.99 50.503 39.361 49.961 38.77 50.391 38.136 51.128 37.043 51.644 35.889 51.921 34.75L50.934 34.754C49.378 36.978 46.875 38.555 44.312 39.292 43.63 39.489 43.25 38.943 43.665 38.37 43.775 38.215 43.88 38.015 43.998 37.767L44.175 37.398C41.648 38.358 37.894 38.293 35.958 36.421 35.408 35.889 35.814 35.198 36.547 35.423 38.017 35.873 40.172 35.366 41.992 34.478A134 134 0 0 1 31.127 33.368C31.003 35.933 31.148 39.381 31.645 43.983 31.721 44.069 31.795 44.158 31.869 44.25 32.368 44.869 31.439 45.616 30.94 44.998 30.454 44.394 29.928 43.928 29.403 43.613 28.638 43.156 27.908 43.041 27.273 43.248 26.301 43.566 25.752 44.946 26.123 47.083 26.29 48.036 26.633 49.056 27.144 50.03 27.903 51.476 28.566 52.564 29.185 53.34 30.34 54.791 31.246 55.068 32.328 54.72L32.406 54.699C32.728 54.433 33.33 54.533 33.395 55.088 33.527 56.215 33.704 57.266 33.92 58.25 34.436 60.584 35.176 62.496 36.06 64.061 37.155 65.999 38.477 67.416 39.885 68.465A14.1 14.1 0 0 0 44.034 70.553 18 18 0 0 0 46.232 71.096C46.124 70.366 47.233 70.131 47.405 70.887 47.629 71.867 48.334 72.809 50.85 72.907 53.366 72.809 54.071 71.868 54.294 70.887 54.466 70.131 55.574 70.366 55.468 71.096A18 18 0 0 0 57.667 70.553 14.1 14.1 0 0 0 61.813 68.465C62.237 68.149 62.653 67.801 63.055 67.416L67.9 69.5C67.277 70.719 65.906 71.098 64.262 71.488M74.195 45.394C74.966 45.584 74.679 46.742 73.91 46.55 73.375 46.42 72.39 47.044 71.619 48.459 71.812 48.695 71.869 49.103 71.736 49.563 71.533 50.279 70.949 50.866 70.439 50.827 69.32 50.741 70.035 49.077 70.101 48.916 70.93 46.818 72.543 44.985 74.195 45.394M27.51 45.394C29.161 44.986 30.775 46.819 31.602 48.916 31.67 49.076 32.384 50.741 31.265 50.827 30.755 50.866 30.173 50.279 29.968 49.563 29.837 49.103 29.891 48.696 30.085 48.459 29.316 47.044 28.33 46.42 27.796 46.55 27.024 46.741 26.738 45.584 27.51 45.394M59.68 59.965A4.7 4.7 0 0 1 58.772 60.502 1.5 1.5 0 0 1 58.457 60.668C58.094 60.816 57.84 61.209 57.481 61.527 57.141 61.828 56.801 62.09 56.455 62.324L55.058 61.818C55.232 61.732 55.361 61.66 55.48 61.59 55.652 61.486 55.814 61.377 55.972 61.261 54.603 61.461 52.892 61.558 50.749 61.558 48.612 61.558 46.908 61.463 45.542 61.263 45.699 61.379 45.862 61.49 46.031 61.593 46.152 61.658 46.279 61.732 46.412 61.799L46.605 61.892C47.543 62.324 48.841 62.656 50.754 62.656 51.164 62.656 51.547 62.64 51.903 62.611L54.182 63.595C53.178 64.027 52.041 64.326 50.752 64.328 48.459 64.324 46.647 63.375 45.217 62.431A10 10 0 0 1 44.025 61.529C43.667 61.209 43.413 60.816 43.049 60.668A1.7 1.7 0 0 1 42.748 60.516 4.8 4.8 0 0 1 41.819 59.967C41.21 59.5 41.909 58.584 42.52 59.051 43.631 59.897 45.875 60.406 50.746 60.406S57.866 59.898 58.976 59.051C59.59 58.584 60.289 59.5 59.68 59.965M41.976 58.1C41.278 57.903 40.518 58.795 40.446 59.438 40.38 60.059 39.445 59.959 39.513 59.336 39.644 58.129 40.939 56.832 42.229 57.195 42.832 57.365 42.58 58.268 41.976 58.1M55.777 55.512A2.9 2.9 0 0 0 54.215 56.012L53.942 56.201A0.526 0.526 0 0 1 53.651 56.883C52.776 57.289 51.839 57.406 50.854 57.414 49.742 57.406 48.804 57.289 47.925 56.883A0.516 0.516 0 0 1 47.608 56.309C47.092 55.967 46.594 55.639 45.843 55.502 45.024 55.35 45.249 54.121 46.071 54.272 48.043 54.631 48.578 56.078 50.825 56.078 52.915 56.078 53.471 54.319 55.747 54.263 56.58 54.238 56.611 55.49 55.777 55.512M59.531 58.1C58.929 58.266 58.676 57.364 59.277 57.196 60.568 56.834 61.863 58.131 61.996 59.338 62.06 59.961 61.129 60.062 61.06 59.441 60.992 58.795 60.23 57.904 59.531 58.1M35.96 45.912C36.696 44.285 38.651 43.238 40.881 43.238 43.101 43.238 45.133 44.278 45.872 45.912 46.215 46.672 45.074 47.189 44.73 46.428 44.35 45.592 43.328 44.848 41.952 44.588A1.76 1.76 0 0 1 40.979 47.813 1.76 1.76 0 0 1 40.076 44.545C38.589 44.755 37.505 45.533 37.099 46.428 36.757 47.189 35.616 46.672 35.96 45.912M45.792 43.496C44.104 42.297 42.008 41.573 39.638 41.573 38.058 41.573 36.569 41.895 35.254 42.464 33.914 43.043 33.043 41.033 34.385 40.453A13.2 13.2 0 0 1 39.638 39.381C42.47 39.381 45.008 40.25 47.061 41.71 48.252 42.555 46.983 44.342 45.792 43.496M65.738 45.912C66.084 46.672 64.943 47.189 64.599 46.428 64.195 45.532 63.111 44.755 61.621 44.545A1.759 1.759 0 1 1 59.743 44.588C58.368 44.848 57.346 45.592 56.966 46.428 56.622 47.189 55.485 46.672 55.827 45.912 56.564 44.278 58.598 43.238 60.816 43.238 63.051 43.237 65.002 44.285 65.738 45.912M55.908 43.496C54.717 44.342 53.449 42.556 54.638 41.71 56.693 40.25 59.232 39.381 62.06 39.381 63.939 39.381 65.726 39.764 67.316 40.453 68.658 41.033 67.787 43.043 66.447 42.464A11 11 0 0 0 62.062 41.573C59.693 41.573 57.596 42.297 55.908 43.496" data-fill-palette-color="accent"></path></svg></g></svg></g><g></g></svg></g><defs></defs></svg><rect width="395.5199999999999" height="155.56776634229303" fill="none" stroke="none" visibility="hidden"></rect></g></svg></g></svg>